<svg width="49" height="49" viewBox="0 0 49 49" fill="none" xmlns="http://www.w3.org/2000/svg">
<rect width="49" height="49" rx="24.5" fill="white"/>
<path d="M40.1792 36.7015C38.1968 33.2814 35.1012 30.6165 31.3908 29.1359C33.236 27.7756 34.5989 25.8791 35.2866 23.7151C35.9743 21.5511 35.9519 19.2292 35.2226 17.0784C34.4932 14.9276 33.0939 13.0569 31.2228 11.7313C29.3518 10.4057 27.1038 9.69238 24.7974 9.69238C22.4909 9.69238 20.243 10.4057 18.3719 11.7313C16.5009 13.0569 15.1015 14.9276 14.3722 17.0784C13.6428 19.2292 13.6204 21.5511 14.3081 23.7151C14.9958 25.8791 16.3588 27.7756 18.2039 29.1359C14.4935 30.6165 11.3979 33.2814 9.41551 36.7015C9.29267 36.8956 9.2108 37.1121 9.17476 37.338C9.13872 37.5638 9.14926 37.7945 9.20573 38.0163C9.26221 38.2381 9.36348 38.4465 9.50352 38.629C9.64356 38.8116 9.81951 38.9646 10.0209 39.079C10.2223 39.1934 10.4451 39.2668 10.6759 39.2949C10.9067 39.3229 11.141 39.3051 11.3647 39.2424C11.5883 39.1797 11.7969 39.0735 11.978 38.93C12.1591 38.7864 12.309 38.6086 12.4187 38.407C15.0388 33.9555 19.6657 31.3005 24.7974 31.3005C29.929 31.3005 34.556 33.9569 37.176 38.407C37.4139 38.783 37.7912 39.0533 38.2281 39.1608C38.6651 39.2683 39.1275 39.2046 39.5175 38.9831C39.9075 38.7616 40.1946 38.3997 40.3181 37.9739C40.4416 37.5481 40.3918 37.0918 40.1792 36.7015ZM17.2785 20.4986C17.2785 19.0368 17.7195 17.6079 18.5457 16.3925C19.3718 15.1771 20.5461 14.2298 21.92 13.6704C23.2939 13.111 24.8057 12.9646 26.2642 13.2498C27.7227 13.535 29.0625 14.2389 30.114 15.2725C31.1655 16.3061 31.8816 17.623 32.1718 19.0567C32.4619 20.4904 32.313 21.9764 31.7439 23.3269C31.1748 24.6774 30.2111 25.8317 28.9746 26.6438C27.7382 27.4559 26.2845 27.8894 24.7974 27.8894C22.8039 27.8871 20.8928 27.1077 19.4833 25.7222C18.0737 24.3366 17.2808 22.458 17.2785 20.4986Z" fill="#1B1D1A"/>
</svg>
